<svg width="29" height="30" viewBox="0 0 29 30" fill="none" xmlns="http://www.w3.org/2000/svg">
<path d="M14.5 28.46C21.9558 28.46 28 22.4158 28 14.96C28 7.50412 21.9558 1.45996 14.5 1.45996C7.04416 1.45996 1 7.50412 1 14.96C1 22.4158 7.04416 28.46 14.5 28.46Z" fill="#EFF1FF" stroke="#40196D" stroke-width="0.5"/>
<mask id="mask0_1_2069" style="mask-type:luminance" maskUnits="userSpaceOnUse" x="8" y="8" width="13" height="15">
<path d="M20.9231 8.45996H8V22.46H20.9231V8.45996Z" fill="white"/>
</mask>
<g mask="url(#mask0_1_2069)">
<path d="M8.23359 13.4618H10.8742V21.4446H8.23359V13.4618ZM17.6891 13.1977C16.5312 13.1977 15.8406 13.6243 15.1094 14.5586V13.4618H12.4688V21.4446H15.1297V17.118C15.1297 16.2039 15.5969 15.3102 16.6531 15.3102C17.7094 15.3102 18.3391 16.2039 18.3391 17.0977V21.4446H21V16.9149C21 13.7664 18.8672 13.1977 17.6891 13.1977ZM9.56406 9.58203C8.69063 9.58203 8 10.2117 8 10.9836C8 11.7555 8.69063 12.3852 9.56406 12.3852C10.4375 12.3852 11.1281 11.7555 11.1281 10.9836C11.1281 10.2117 10.4375 9.58203 9.56406 9.58203Z" fill="#40196D"/>
</g>
</svg>
