<svg width="29" height="30" viewBox="0 0 29 30" fill="none" xmlns="http://www.w3.org/2000/svg">
<path d="M14.5 28.46C21.9558 28.46 28 22.4158 28 14.96C28 7.50412 21.9558 1.45996 14.5 1.45996C7.04416 1.45996 1 7.50412 1 14.96C1 22.4158 7.04416 28.46 14.5 28.46Z" fill="#EFF1FF" stroke="#40196D" stroke-width="0.5"/>
<path fill-rule="evenodd" clip-rule="evenodd" d="M14.6562 9.17383C13.0425 9.17383 12.8401 9.18093 12.2061 9.2097C11.5736 9.23884 11.1417 9.34011 10.764 9.4877C10.3729 9.64053 10.0416 9.84492 9.71144 10.1775C9.38089 10.5097 9.17774 10.843 9.02584 11.2365C8.87877 11.6165 8.77849 12.0511 8.74952 12.6874C8.72055 13.3252 8.71387 13.5289 8.71387 15.1524C8.71387 16.7764 8.72055 16.98 8.74952 17.6175C8.77849 18.2538 8.87877 18.6884 9.02584 19.0688C9.17774 19.4619 9.38089 19.7952 9.71144 20.1277C10.0416 20.4599 10.3729 20.6643 10.764 20.8171C11.1417 20.9651 11.5736 21.066 12.2061 21.0951C12.8401 21.1243 13.0425 21.131 14.6562 21.131C16.2699 21.131 16.4723 21.1243 17.1063 21.0951C17.7388 21.066 18.1707 20.9651 18.5484 20.8171C18.9395 20.6643 19.2708 20.4599 19.601 20.1277C19.9315 19.7952 20.1347 19.4619 20.2866 19.0688C20.4336 18.6884 20.5339 18.2538 20.5629 17.6175C20.5919 16.98 20.5985 16.7764 20.5985 15.1524C20.5985 13.5289 20.5919 13.3252 20.5629 12.6874C20.5339 12.0511 20.4336 11.6165 20.2866 11.2365C20.1347 10.843 19.9315 10.5097 19.601 10.1775C19.2708 9.84492 18.9395 9.64053 18.5484 9.4877C18.1707 9.34011 17.7388 9.23884 17.1063 9.2097C16.4723 9.18093 16.2699 9.17383 14.6562 9.17383ZM14.6562 10.2511C16.2428 10.2511 16.4307 10.2571 17.0573 10.2858C17.6367 10.3124 17.9516 10.4099 18.1611 10.4918C18.4381 10.6001 18.6361 10.7298 18.8441 10.939C19.052 11.1483 19.1809 11.3475 19.2886 11.6262C19.37 11.8369 19.4669 12.1538 19.4933 12.7367C19.5219 13.3671 19.5278 13.5562 19.5278 15.1524C19.5278 16.7487 19.5219 16.9378 19.4933 17.5682C19.4669 18.1511 19.37 18.4679 19.2886 18.6787C19.1809 18.9574 19.052 19.1566 18.8441 19.3658C18.6361 19.5751 18.4381 19.7047 18.1611 19.8131C17.9516 19.8949 17.6367 19.9925 17.0573 20.019C16.4307 20.0478 16.2428 20.0537 14.6562 20.0537C13.0696 20.0537 12.8817 20.0478 12.2551 20.019C11.6758 19.9925 11.3608 19.8949 11.1513 19.8131C10.8743 19.7047 10.6763 19.5751 10.4683 19.3658C10.2604 19.1566 10.1315 18.9574 10.0238 18.6787C9.94245 18.4679 9.84551 18.1511 9.81914 17.5682C9.79054 16.9378 9.7846 16.7487 9.7846 15.1524C9.7846 13.5562 9.79054 13.3671 9.81914 12.7367C9.84551 12.1538 9.94245 11.8369 10.0238 11.6262C10.1315 11.3475 10.2604 11.1483 10.4683 10.939C10.6763 10.7298 10.8743 10.6001 11.1513 10.4918C11.3608 10.4099 11.6758 10.3124 12.2551 10.2858C12.8817 10.2571 13.0696 10.2511 14.6562 10.2511Z" fill="#40196D"/>
<path fill-rule="evenodd" clip-rule="evenodd" d="M14.7923 17.0928C13.6672 17.0928 12.755 16.224 12.755 15.1526C12.755 14.0808 13.6672 13.212 14.7923 13.212C15.9174 13.212 16.8297 14.0808 16.8297 15.1526C16.8297 16.224 15.9174 17.0928 14.7923 17.0928ZM14.7923 12.1631C13.0587 12.1631 11.6536 13.5016 11.6536 15.1526C11.6536 16.8036 13.0587 18.1417 14.7923 18.1417C16.526 18.1417 17.9311 16.8036 17.9311 15.1526C17.9311 13.5016 16.526 12.1631 14.7923 12.1631Z" fill="#40196D"/>
<path fill-rule="evenodd" clip-rule="evenodd" d="M18.5288 12.014C18.5288 12.4265 18.1941 12.7613 17.7815 12.7613C17.3689 12.7613 17.0342 12.4265 17.0342 12.014C17.0342 11.601 17.3689 11.2666 17.7815 11.2666C18.1941 11.2666 18.5288 11.601 18.5288 12.014Z" fill="#40196D"/>
</svg>
