<svg width="29" height="30" viewBox="0 0 29 30" fill="none" xmlns="http://www.w3.org/2000/svg">
<path d="M14.5 28.46C21.9558 28.46 28 22.4158 28 14.96C28 7.50412 21.9558 1.45996 14.5 1.45996C7.04416 1.45996 1 7.50412 1 14.96C1 22.4158 7.04416 28.46 14.5 28.46Z" fill="#EFF1FF" stroke="#40196D" stroke-width="0.5"/>
<mask id="mask0_1_2059" style="mask-type:luminance" maskUnits="userSpaceOnUse" x="8" y="8" width="13" height="14">
<path d="M21 8.45996H8V21.46H21V8.45996Z" fill="white"/>
</mask>
<g mask="url(#mask0_1_2059)">
<path fill-rule="evenodd" clip-rule="evenodd" d="M9.54158 12.1905C9.55783 12.0307 9.49663 11.873 9.37746 11.7658L8.16413 10.3033V10.085H11.933L14.8461 16.474L17.4071 10.085H21V10.3033L19.9622 11.2983C19.8728 11.3666 19.8284 11.4787 19.8468 11.5897V18.9012C19.8284 19.0117 19.8728 19.1238 19.9622 19.192L20.9756 20.1871V20.4054H15.8775V20.1871L16.9278 19.1677C17.0307 19.0647 17.0307 19.0344 17.0307 18.8768V12.9672L14.1116 20.3815H13.7173L10.3183 12.9672V17.9365C10.2902 18.145 10.3595 18.3557 10.5063 18.5063L11.8718 20.1627V20.3815H8V20.1627L9.36554 18.5063C9.51179 18.3552 9.57679 18.1434 9.54158 17.9365V12.1905Z" fill="#40196D"/>
</g>
</svg>
