<svg width="29" height="30" viewBox="0 0 29 30" fill="none" xmlns="http://www.w3.org/2000/svg">
<path d="M14.5 28.46C21.9558 28.46 28 22.4158 28 14.96C28 7.50412 21.9558 1.45996 14.5 1.45996C7.04416 1.45996 1 7.50412 1 14.96C1 22.4158 7.04416 28.46 14.5 28.46Z" fill="#EFF1FF" stroke="#40196D" stroke-width="0.5"/>
<mask id="mask0_1_2049" style="mask-type:luminance" maskUnits="userSpaceOnUse" x="8" y="8" width="13" height="15">
<path d="M20.9231 8.45996H8V22.46H20.9231V8.45996Z" fill="white"/>
</mask>
<g mask="url(#mask0_1_2049)">
<path d="M21.0079 12.5138C21.0079 11.3711 20.1674 10.4518 19.1287 10.4518C17.7219 10.3857 16.2871 10.3604 14.8219 10.3604C14.7457 10.3604 14.6695 10.3604 14.5933 10.3604C14.5172 10.3604 14.441 10.3604 14.3648 10.3604C12.9021 10.3604 11.4648 10.3857 10.0579 10.4518C9.02187 10.4518 8.18132 11.3762 8.18132 12.5189C8.11784 13.4229 8.0899 14.327 8.09244 15.231C8.0899 16.135 8.11784 17.039 8.17878 17.9456C8.17878 19.0884 9.01933 20.0152 10.0554 20.0152C11.5333 20.0838 13.0494 20.1143 14.5908 20.1117C16.1348 20.1168 17.6457 20.0863 19.1262 20.0152C20.1648 20.0152 21.0054 19.0884 21.0054 17.9456C21.0663 17.039 21.0942 16.135 21.0917 15.2284C21.0968 14.3244 21.0688 13.4204 21.0079 12.5138ZM13.349 17.7221V12.7322L17.0312 15.2259L13.349 17.7221Z" fill="#40196D"/>
</g>
</svg>
